<svg width="26" height="30" viewBox="0 0 26 30" fill="none" xmlns="http://www.w3.org/2000/svg">
<path d="M24.375 15C24.3775 15.3845 24.2762 15.7604 24.0851 16.0755C23.894 16.3905 23.6226 16.629 23.3085 16.7578L16.8654 19.4613L14.5234 26.8945C14.408 27.2534 14.2001 27.5628 13.9278 27.7814C13.6554 27.9999 13.3317 28.1171 13 28.1171C12.6682 28.1171 12.3445 27.9999 12.0721 27.7814C11.7998 27.5628 11.5919 27.2534 11.4765 26.8945L9.13449 19.4601L2.69136 16.7578C2.38037 16.6246 2.11216 16.3848 1.92276 16.0706C1.73336 15.7563 1.63184 15.3827 1.63184 15C1.63184 14.6172 1.73336 14.2437 1.92276 13.9294C2.11216 13.6152 2.38037 13.3754 2.69136 13.2422L9.13449 10.5398L11.4765 3.10546C11.5919 2.74663 11.7998 2.43716 12.0721 2.21861C12.3445 2.00007 12.6682 1.88293 13 1.88293C13.3317 1.88293 13.6554 2.00007 13.9278 2.21861C14.2001 2.43716 14.408 2.74663 14.5234 3.10546L16.8664 10.5398L23.3085 13.2422C23.6226 13.371 23.894 13.6095 24.0851 13.9245C24.2762 14.2396 24.3775 14.6155 24.375 15Z" fill="#019B83"/>
</svg>
